<?xml version="1.0" encoding="UTF-8"?>
<svg width="90px" height="90px" viewBox="0 0 90 90" version="1.1" xmlns="http://www.w3.org/2000/svg" xmlns:xlink="http://www.w3.org/1999/xlink">
    <!-- Generator: Sketch 49.3 (51167) - http://www.bohemiancoding.com/sketch -->
    <title>cosme</title>
    <desc>Created with Sketch.</desc>
    <defs></defs>
    <g id="Page-1" stroke="none" stroke-width="1" fill="none" fill-rule="evenodd">
        <g id="spa网站" transform="translate(-755.000000, -2294.000000)" fill="#C8A4A8" fill-rule="nonzero">
            <g id="services" transform="translate(0.000000, 1640.000000)">
                <g id="3" transform="translate(643.000000, 654.000000)">
                    <g id="cosme" transform="translate(112.000000, 0.000000)">
                        <path d="M75.483871,23.8514516 L75.483871,19.4225806 C75.483871,18.620877 74.8339617,17.9709677 74.0322581,17.9709677 L72.5806452,17.9709677 L72.5806452,13.616129 C72.5806452,12.8144254 71.9307359,12.1645161 71.1290323,12.1645161 L68.2258065,12.1645161 L68.2258065,8.99419355 C70.136836,8.32264967 71.3302409,6.41962423 71.1025573,4.40687356 C70.8748738,2.39412289 69.2865223,0.805771369 67.2737716,0.578087825 C65.2610209,0.350404282 63.3579955,1.54380918 62.6864516,3.45483871 L50.8064516,3.45483871 C50.4214914,3.45492093 50.0523282,3.6079122 49.7801613,3.88016129 L46.8769355,6.7833871 L48.9295161,8.83596774 L51.4074194,6.35806452 L62.6864516,6.35806452 C63.1256091,7.58748624 64.0931589,8.55503607 65.3225806,8.99419355 L65.3225806,12.1645161 L62.4193548,12.1645161 C61.6176512,12.1645161 60.9677419,12.8144254 60.9677419,13.616129 L60.9677419,17.9709677 L59.516129,17.9709677 C58.7144254,17.9709677 58.0645161,18.620877 58.0645161,19.4225806 L58.0645161,23.8514516 C49.8487143,24.6083105 43.5593107,31.4945786 43.5483871,39.7451613 L43.5483871,83.2935484 C43.5531863,87.3000772 46.7999228,90.5468137 50.8064516,90.5516129 L82.7419355,90.5516129 C86.7484643,90.5468137 89.9952008,87.3000772 90,83.2935484 L90,39.7451613 C89.9890764,31.4945786 83.6996728,24.6083105 75.483871,23.8514516 Z M66.7741935,3.45483871 C67.5758972,3.45483871 68.2258065,4.10474794 68.2258065,4.90645161 C68.2258065,5.70815528 67.5758972,6.35806452 66.7741935,6.35806452 C65.9724899,6.35806452 65.3225806,5.70815528 65.3225806,4.90645161 C65.3225806,4.10474794 65.9724899,3.45483871 66.7741935,3.45483871 Z M63.8709677,15.0677419 L69.6774194,15.0677419 L69.6774194,17.9709677 L63.8709677,17.9709677 L63.8709677,15.0677419 Z M72.5806452,20.8741935 L72.5806452,23.7774194 L60.9677419,23.7774194 L60.9677419,20.8741935 L72.5806452,20.8741935 Z M59.516129,26.6806452 L74.0322581,26.6806452 C81.2439436,26.6894433 87.087976,32.5334757 87.0967742,39.7451613 L87.0967742,55.7129032 L46.4516129,55.7129032 L46.4516129,39.7451613 C46.4604111,32.5334757 52.3044435,26.6894433 59.516129,26.6806452 Z M46.4516129,81.8419355 L46.4516129,58.616129 L87.0967742,58.616129 L87.0967742,81.8419355 L46.4516129,81.8419355 Z M82.7419355,87.6483871 L50.8064516,87.6483871 C48.9675695,87.6407641 47.3316598,86.4788964 46.7187097,84.7451613 L86.8296774,84.7451613 C86.2167273,86.4788964 84.5808176,87.6407641 82.7419355,87.6483871 Z" id="Shape"></path>
                        <path d="M52.2580645,39.7451613 C52.2628637,35.7386325 55.5096003,32.491896 59.516129,32.4870968 L65.3225806,32.4870968 L65.3225806,29.583871 L59.516129,29.583871 C53.9068563,29.5902706 49.3612383,34.1358886 49.3548387,39.7451613 L49.3548387,48.4548387 L52.2580645,48.4548387 L52.2580645,39.7451613 Z" id="Shape"></path>
                        <path d="M82.7419355,61.5193548 L50.8064516,61.5193548 C50.0047479,61.5193548 49.3548387,62.1692641 49.3548387,62.9709677 L49.3548387,77.4870968 C49.3548387,78.2888004 50.0047479,78.9387097 50.8064516,78.9387097 L82.7419355,78.9387097 C83.5436392,78.9387097 84.1935484,78.2888004 84.1935484,77.4870968 L84.1935484,62.9709677 C84.1935484,62.1692641 83.5436392,61.5193548 82.7419355,61.5193548 Z M81.2903226,76.0354839 L52.2580645,76.0354839 L52.2580645,64.4225806 L81.2903226,64.4225806 L81.2903226,76.0354839 Z" id="Shape"></path>
                        <path d="M29.0322581,50.5248387 L29.0322581,45.5516129 C29.0322581,44.7499092 28.3823488,44.1 27.5806452,44.1 L26.1290323,44.1 L26.1290323,39.7451613 C26.1290323,38.9434576 25.479123,38.2935484 24.6774194,38.2935484 L21.7741935,38.2935484 L21.7741935,35.1232258 C23.6852231,34.4516819 24.878628,32.5486565 24.6509444,30.5359058 C24.4232609,28.5231551 22.8349094,26.9348036 20.8221587,26.7071201 C18.809408,26.4794365 16.9063826,27.6728414 16.2348387,29.583871 L4.35483871,29.583871 C3.9698785,29.5839532 3.60071526,29.7369445 3.32854839,30.0091935 L0.425322581,32.9124194 L2.47790323,34.965 L4.95580645,32.4870968 L16.2348387,32.4870968 C16.6739962,33.7165185 17.641546,34.6840683 18.8709677,35.1232258 L18.8709677,38.2935484 L15.9677419,38.2935484 C15.1660383,38.2935484 14.516129,38.9434576 14.516129,39.7451613 L14.516129,44.1 L13.0645161,44.1 C12.2628125,44.1 11.6129032,44.7499092 11.6129032,45.5516129 L11.6129032,50.5248387 C4.75052121,52.4767479 0.012200205,58.7396237 4.4408921e-16,65.8741935 L4.4408921e-16,83.2935484 C0.00479920113,87.3000772 3.25153575,90.5468137 7.25806452,90.5516129 L33.3870968,90.5516129 C37.3936255,90.5468137 40.6403621,87.3000772 40.6451613,83.2935484 L40.6451613,65.8741935 C40.6329611,58.7396237 35.8946401,52.4767479 29.0322581,50.5248387 Z M20.3225806,29.583871 C21.1242843,29.583871 21.7741935,30.2337802 21.7741935,31.0354839 C21.7741935,31.8371875 21.1242843,32.4870968 20.3225806,32.4870968 C19.520877,32.4870968 18.8709677,31.8371875 18.8709677,31.0354839 C18.8709677,30.2337802 19.520877,29.583871 20.3225806,29.583871 Z M32.8703226,55.7129032 L7.77483871,55.7129032 C10.0916533,53.833523 12.9845057,52.8084158 15.9677419,52.8096774 L24.6774194,52.8096774 C27.6606556,52.8084158 30.553508,53.833523 32.8703226,55.7129032 Z M17.4193548,41.1967742 L23.2258065,41.1967742 L23.2258065,44.1 L17.4193548,44.1 L17.4193548,41.1967742 Z M14.516129,47.0032258 L26.1290323,47.0032258 L26.1290323,49.9804839 C25.65,49.9369355 25.1680645,49.9064516 24.6774194,49.9064516 L15.9677419,49.9064516 C15.4770968,49.9064516 14.9951613,49.9369355 14.516129,49.9804839 L14.516129,47.0032258 Z M33.3870968,87.6483871 L7.25806452,87.6483871 C5.41918244,87.6407641 3.78327274,86.4788964 3.17032258,84.7451613 L37.4748387,84.7451613 C36.8618886,86.4788964 35.2259788,87.6407641 33.3870968,87.6483871 Z M37.7419409,81.8419355 L2.90322037,81.8419355 L2.90322581,65.8741935 C2.90086132,63.2888657 3.670143,60.7616591 5.11258065,58.616129 L35.5325806,58.616129 C36.9750183,60.7616591 37.7443,63.2888657 37.7419355,65.8741935 L37.7419409,81.8419355 Z" id="Shape"></path>
                        <path d="M33.3870968,61.5193548 L7.25806452,61.5193548 C6.45636085,61.5193548 5.80645161,62.1692641 5.80645161,62.9709677 L5.80645161,77.4870968 C5.80645161,78.2888004 6.45636085,78.9387097 7.25806452,78.9387097 L33.3870968,78.9387097 C34.1888004,78.9387097 34.8387097,78.2888004 34.8387097,77.4870968 L34.8387097,62.9709677 C34.8387097,62.1692641 34.1888004,61.5193548 33.3870968,61.5193548 Z M31.9354839,76.0354839 L8.70967742,76.0354839 L8.70967742,64.4225806 L31.9354839,64.4225806 L31.9354839,76.0354839 Z" id="Shape"></path>
                        <path d="M8.70967742,17.9709677 C13.5198994,17.9709677 17.4193548,14.0715123 17.4193548,9.26129032 C17.4193548,4.45106831 13.5198994,0.551612903 8.70967742,0.551612903 C3.8994554,0.551612903 1.08873484e-15,4.45106831 4.4408921e-16,9.26129032 C0.004801034,14.0695223 3.90144546,17.9661667 8.70967742,17.9709677 Z M8.70967742,3.45483871 C11.9164921,3.45483871 14.516129,6.05447565 14.516129,9.26129032 C14.516129,12.468105 11.9164921,15.0677419 8.70967742,15.0677419 C5.50286274,15.0677419 2.90322581,12.468105 2.90322581,9.26129032 C2.90322581,6.05447565 5.50286274,3.45483871 8.70967742,3.45483871 Z" id="Shape"></path>
                        <path d="M30.483871,22.3258065 C33.6906856,22.3258065 36.2903226,19.7261695 36.2903226,16.5193548 C36.2903226,13.3125402 33.6906856,10.7129032 30.483871,10.7129032 C27.2770563,10.7129032 24.6774194,13.3125402 24.6774194,16.5193548 C24.6774194,19.7261695 27.2770563,22.3258065 30.483871,22.3258065 Z M30.483871,13.616129 C32.0872783,13.616129 33.3870968,14.9159475 33.3870968,16.5193548 C33.3870968,18.1227622 32.0872783,19.4225806 30.483871,19.4225806 C28.8804636,19.4225806 27.5806452,18.1227622 27.5806452,16.5193548 C27.5806452,14.9159475 28.8804636,13.616129 30.483871,13.616129 Z" id="Shape"></path>
                        <path d="M50.8064516,15.0677419 C50.8064516,12.6626309 48.8567239,10.7129032 46.4516129,10.7129032 C44.0465019,10.7129032 42.0967742,12.6626309 42.0967742,15.0677419 C42.0967742,17.4728529 44.0465019,19.4225806 46.4516129,19.4225806 C48.8567239,19.4225806 50.8064516,17.4728529 50.8064516,15.0677419 Z M45,15.0677419 C45,14.2660383 45.6499092,13.616129 46.4516129,13.616129 C47.2533166,13.616129 47.9032258,14.2660383 47.9032258,15.0677419 C47.9032258,15.8694456 47.2533166,16.5193548 46.4516129,16.5193548 C45.6499092,16.5193548 45,15.8694456 45,15.0677419 Z" id="Shape"></path>
                        <path d="M59.516129,44.1 C57.111018,44.1 55.1612903,46.0497277 55.1612903,48.4548387 C55.1612903,50.8599497 57.111018,52.8096774 59.516129,52.8096774 C61.92124,52.8096774 63.8709677,50.8599497 63.8709677,48.4548387 C63.8709677,46.0497277 61.92124,44.1 59.516129,44.1 Z M59.516129,49.9064516 C58.7144254,49.9064516 58.0645161,49.2565424 58.0645161,48.4548387 C58.0645161,47.653135 58.7144254,47.0032258 59.516129,47.0032258 C60.3178327,47.0032258 60.9677419,47.653135 60.9677419,48.4548387 C60.9677419,49.2565424 60.3178327,49.9064516 59.516129,49.9064516 Z" id="Shape"></path>
                        <path d="M74.0322581,47.0032258 C78.0407764,47.0032258 81.2903226,43.7536796 81.2903226,39.7451613 C81.2903226,35.7366429 78.0407764,32.4870968 74.0322581,32.4870968 C70.0237397,32.4870968 66.7741935,35.7366429 66.7741935,39.7451613 C66.7789927,43.7516901 70.0257293,46.9984266 74.0322581,47.0032258 Z M74.0322581,35.3903226 C76.4373691,35.3903226 78.3870968,37.3400503 78.3870968,39.7451613 C78.3870968,42.1502723 76.4373691,44.1 74.0322581,44.1 C71.6271471,44.1 69.6774194,42.1502723 69.6774194,39.7451613 C69.6774194,37.3400503 71.6271471,35.3903226 74.0322581,35.3903226 Z" id="Shape"></path>
                    </g>
                </g>
            </g>
        </g>
    </g>
</svg>
