<?xml version="1.0" encoding="UTF-8"?>
<svg width="90px" height="90px" viewBox="0 0 90 90" version="1.1" xmlns="http://www.w3.org/2000/svg" xmlns:xlink="http://www.w3.org/1999/xlink">
    <!-- Generator: Sketch 49.3 (51167) - http://www.bohemiancoding.com/sketch -->
    <title>facial</title>
    <desc>Created with Sketch.</desc>
    <defs></defs>
    <g id="Page-1" stroke="none" stroke-width="1" fill="none" fill-rule="evenodd">
        <g id="spa网站" transform="translate(-335.000000, -1961.000000)" fill="#C8A4A8" fill-rule="nonzero">
            <g id="services" transform="translate(0.000000, 1640.000000)">
                <g id="1" transform="translate(233.000000, 321.000000)">
                    <g id="facial" transform="translate(102.000000, 0.000000)">
                        <path d="M3.23274194,30.5129032 L3.53758065,30.716129 C4.16848995,31.1341891 4.86111376,31.4506212 5.59016129,31.653871 C4.80061497,32.6646002 4.36641863,33.9074935 4.35483871,35.19 L4.35483871,36.2903226 C4.35483871,39.4971373 6.95447565,42.0967742 10.1612903,42.0967742 L11.2601613,42.0967742 C12.5441546,42.0926447 13.7897031,41.6582105 14.7977419,40.8629032 C15.0012913,41.5913881 15.317708,42.2834882 15.7354839,42.9140323 L15.9387097,43.218871 C17.2825294,45.2412383 19.5507425,46.4552038 21.978871,46.4516129 L24.4727419,46.4516129 C26.9008705,46.4552038 29.1690835,45.2412383 30.5129032,43.218871 L30.716129,42.9140323 C31.1339049,42.2834882 31.4503216,41.5913881 31.653871,40.8629032 C32.6619098,41.6582105 33.9074583,42.0926447 35.1914516,42.0967742 L36.2903226,42.0967742 C39.4971373,42.0967742 42.0967742,39.4971373 42.0967742,36.2903226 L42.0967742,35.19 C42.0851943,33.9074935 41.6509979,32.6646002 40.8614516,31.653871 C41.5904991,31.4506212 42.283123,31.1341891 42.9140323,30.716129 L43.218871,30.5129032 C45.2398438,29.1678162 46.4533758,26.9004131 46.4516129,24.4727419 L46.4516129,21.978871 C46.4533758,19.5511998 45.2398438,17.2837967 43.218871,15.9387097 L42.9140323,15.7354839 C42.283123,15.3174238 41.5904991,15.0009917 40.8614516,14.7977419 C41.6509979,13.7870127 42.0851943,12.5441194 42.0967742,11.2616129 L42.0967742,10.1612903 C42.0967742,6.95447565 39.4971373,4.35483871 36.2903226,4.35483871 L35.1914516,4.35483871 C33.9074583,4.35896822 32.6619098,4.79340243 31.653871,5.58870968 C31.4506089,4.86057284 31.1341672,4.16890751 30.716129,3.53903226 L30.5129032,3.23274194 C29.1690835,1.2103746 26.9008705,-0.00359091973 24.4727419,-1.69406589e-21 L21.978871,-1.69406589e-21 C19.5507425,-0.00359091973 17.2825294,1.2103746 15.9387097,3.23274194 L15.7354839,3.53903226 C15.3174457,4.16890751 15.001004,4.86057284 14.7977419,5.58870968 C13.7897031,4.79340243 12.5441546,4.35896822 11.2601613,4.35483871 L10.1612903,4.35483871 C6.95447565,4.35483871 4.35483871,6.95447565 4.35483871,10.1612903 L4.35483871,11.2616129 C4.36641863,12.5441194 4.80061497,13.7870127 5.59016129,14.7977419 C4.86146964,15.0007256 4.16928374,15.3171814 3.53903226,15.7354839 L3.23274194,15.9387097 C1.21176909,17.2837967 -0.00176291355,19.5511998 -6.44646706e-16,21.978871 L-6.44646706e-16,24.4727419 C-0.00176291355,26.9004131 1.21176909,29.1678162 3.23274194,30.5129032 Z M15.5496774,32.7135484 C14.8732621,33.8414392 14.5160202,35.1319255 14.516129,36.4470968 L14.516129,37.1409677 L13.3141935,38.3429032 C12.7704146,38.889118 12.030903,39.1953751 11.2601613,39.1935484 L10.1612903,39.1935484 C8.55788298,39.1935484 7.25806452,37.8937299 7.25806452,36.2903226 L7.25806452,35.19 C7.25997154,34.4204276 7.56568941,33.6827397 8.10870968,33.1374194 L9.31064516,31.9354839 L10.0045161,31.9354839 C11.3203167,31.9354173 12.6113487,31.5776614 13.7395161,30.9004839 L18.2670968,28.1845161 L15.5496774,32.7135484 Z M23.2258065,20.3225806 C24.8292138,20.3225806 26.1290323,21.6223991 26.1290323,23.2258065 C26.1290323,24.8292138 24.8292138,26.1290323 23.2258065,26.1290323 C21.6223991,26.1290323 20.3225806,24.8292138 20.3225806,23.2258065 C20.3225806,21.6223991 21.6223991,20.3225806 23.2258065,20.3225806 Z M29.0322581,38.8872581 C29.0348417,39.746526 28.7822314,40.587213 28.3064516,41.3027419 L28.1017742,41.6090323 C27.294668,42.8240432 25.9313901,43.5525789 24.4727419,43.5483871 L21.978871,43.5483871 C20.5202228,43.5525789 19.1569449,42.8240432 18.3498387,41.6090323 L18.1451613,41.3027419 C17.6693815,40.587213 17.4167712,39.746526 17.4193548,38.8872581 L17.4193548,36.4470968 C17.4198626,35.6577454 17.6340514,34.8832544 18.0391935,34.2058065 L21.3474194,28.6896774 C21.4925806,28.7375806 21.6290323,28.7840323 21.7741935,28.8217742 L21.7741935,31.9354839 L24.6774194,31.9354839 L24.6774194,28.826129 C24.8225806,28.7883871 24.9677419,28.7419355 25.1041935,28.6940323 L28.4109677,34.2101613 C28.8159953,34.8861375 29.0306704,35.6590684 29.0322581,36.4470968 L29.0322581,38.8872581 Z M39.1935484,36.2903226 C39.1935484,37.8937299 37.8937299,39.1935484 36.2903226,39.1935484 L35.1914516,39.1935484 C34.4207099,39.1953751 33.6811983,38.889118 33.1374194,38.3429032 L31.9354839,37.1409677 L31.9354839,36.4470968 C31.935201,35.1315217 31.5779969,33.8406706 30.9019355,32.7120968 L28.1845161,28.1845161 L32.7120968,30.9004839 C33.8402642,31.5776614 35.1312962,31.9354173 36.4470968,31.9354839 L37.1409677,31.9354839 L38.3429032,33.1374194 C38.8859235,33.6827397 39.1916414,34.4204276 39.1935484,35.19 L39.1935484,36.2903226 Z M41.6090323,18.3556452 C42.8205336,19.1632422 43.5482813,20.5228667 43.5483871,21.978871 L43.5483871,24.4727419 C43.5502245,25.9308031 42.8222468,27.2930368 41.6090323,28.1017742 L41.3027419,28.3064516 C40.5874012,28.7826316 39.7465896,29.0352793 38.8872581,29.0322581 L36.4470968,29.0322581 C35.657411,29.0327682 34.8825291,28.8179693 34.2058065,28.4109677 L28.6896774,25.1041935 C28.7375806,24.9590323 28.7840323,24.8225806 28.8217742,24.6774194 L31.9354839,24.6774194 L31.9354839,21.7741935 L28.826129,21.7741935 C28.7883871,21.6290323 28.7419355,21.483871 28.6940323,21.3474194 L34.2101613,18.0406452 C34.8856169,17.6344059 35.6588895,17.4196358 36.4470968,17.4193548 L38.8872581,17.4193548 C39.7465896,17.4163336 40.5874012,17.6689813 41.3027419,18.1451613 L41.6090323,18.3556452 Z M30.9019355,13.7380645 C31.5783508,12.6101737 31.9355927,11.3196874 31.9354839,10.0045161 L31.9354839,9.31064516 L33.1374194,8.10870968 C33.6811983,7.56249487 34.4207099,7.2562378 35.1914516,7.25806452 L36.2903226,7.25806452 C37.8937299,7.25806452 39.1935484,8.55788298 39.1935484,10.1612903 L39.1935484,11.2616129 C39.1916414,12.0311853 38.8859235,12.7688732 38.3429032,13.3141935 L37.1409677,14.516129 L36.4470968,14.516129 C35.1312962,14.5161956 33.8402642,14.8739515 32.7120968,15.551129 L28.1845161,18.2670968 L30.9019355,13.7380645 Z M17.4193548,7.56435484 C17.4167712,6.70508691 17.6693815,5.86439988 18.1451613,5.14887097 L18.3498387,4.84258065 C19.1569449,3.62756966 20.5202228,2.89903399 21.978871,2.90322581 L24.4727419,2.90322581 C25.9313901,2.89903399 27.294668,3.62756966 28.1017742,4.84258065 L28.3064516,5.14887097 C28.7822314,5.86439988 29.0348417,6.70508691 29.0322581,7.56435484 L29.0322581,10.0045161 C29.0317504,10.7938675 28.8175615,11.5683585 28.4124194,12.2458065 L25.1041935,17.7619355 C24.9590323,17.7140323 24.8225806,17.6675806 24.6774194,17.6298387 L24.6774194,14.516129 L21.7741935,14.516129 L21.7741935,17.6254839 C21.6290323,17.6632258 21.483871,17.7096774 21.3474194,17.7575806 L18.0406452,12.2414516 C17.6356176,11.5654754 17.4209425,10.7925445 17.4193548,10.0045161 L17.4193548,7.56435484 Z M7.25806452,10.1612903 C7.25806452,8.55788298 8.55788298,7.25806452 10.1612903,7.25806452 L11.2601613,7.25806452 C12.030903,7.2562378 12.7704146,7.56249487 13.3141935,8.10870968 L14.516129,9.31064516 L14.516129,10.0045161 C14.5164119,11.3200912 14.873616,12.6109423 15.5496774,13.7395161 L18.2670968,18.2670968 L13.7395161,15.551129 C12.6113487,14.8739515 11.3203167,14.5161956 10.0045161,14.516129 L9.31064516,14.516129 L8.10870968,13.3141935 C7.56568941,12.7688732 7.25997154,12.0311853 7.25806452,11.2616129 L7.25806452,10.1612903 Z M2.90322581,21.978871 C2.90138842,20.5208098 3.62936611,19.1585761 4.84258065,18.3498387 L5.14887097,18.1451613 C5.86421174,17.6689813 6.70502331,17.4163336 7.56435484,17.4193548 L10.0045161,17.4193548 C10.7942019,17.4188447 11.5690838,17.6336436 12.2458065,18.0406452 L17.7619355,21.3474194 C17.7140323,21.4925806 17.6675806,21.6290323 17.6298387,21.7741935 L14.516129,21.7741935 L14.516129,24.6774194 L17.6254839,24.6774194 C17.6632258,24.8225806 17.7096774,24.9677419 17.7575806,25.1041935 L12.2414516,28.4109677 C11.565996,28.817207 10.7927234,29.0319771 10.0045161,29.0322581 L7.56435484,29.0322581 C6.70502331,29.0352793 5.86421174,28.7826316 5.14887097,28.3064516 L4.84258065,28.1017742 C3.62936611,27.2930368 2.90138842,25.9308031 2.90322581,24.4727419 L2.90322581,21.978871 Z" id="Shape"></path>
                        <path d="M88.5483871,49.3548387 L27.5806452,49.3548387 C26.7789415,49.3548387 26.1290323,50.0047479 26.1290323,50.8064516 L26.1290323,56.6129032 C26.1481233,69.5990461 35.2112508,80.8179896 47.9032258,83.5664516 L47.9032258,88.5483871 C47.9032258,89.3500908 48.553135,90 49.3548387,90 L66.7741935,90 C67.5758972,90 68.2258065,89.3500908 68.2258065,88.5483871 L68.2258065,83.5664516 C80.9177814,80.8179896 89.9809089,69.5990461 90,56.6129032 L90,50.8064516 C90,50.0047479 89.3500908,49.3548387 88.5483871,49.3548387 Z M81.2903226,52.2580645 L81.2903226,55.1612903 L29.0322581,55.1612903 L29.0322581,52.2580645 L81.2903226,52.2580645 Z M65.3225806,87.0967742 L50.8064516,87.0967742 L50.8064516,84.0382258 C51.7708221,84.140601 52.7398888,84.1924461 53.7096774,84.1935484 L62.4193548,84.1935484 C63.3891434,84.1924461 64.3582101,84.140601 65.3225806,84.0382258 L65.3225806,87.0967742 Z M87.0967742,56.6129032 C87.0815743,70.2355646 76.0420163,81.2751227 62.4193548,81.2903226 L53.7096774,81.2903226 C40.6586305,81.2687108 29.8790379,71.0926839 29.1062903,58.0645161 L81.0580645,58.0645161 C79.6109195,68.0514346 71.0589492,75.4664377 60.9677419,75.483871 L59.516129,75.483871 L59.516129,78.3870968 L60.9677419,78.3870968 C73.7887002,78.3718989 84.1783506,67.9822486 84.1935484,55.1612903 L84.1935484,52.2580645 L87.0967742,52.2580645 L87.0967742,56.6129032 Z" id="Shape"></path>
                        <path d="M1.6316129,63.8825806 C1.18728033,63.8272015 0.742257115,63.979982 0.425635664,64.2966034 C0.109014213,64.6132249 -0.0437662318,65.0582481 0.0116129032,65.5025806 C0.0420967742,65.7479032 3.28790323,90 21.7741935,90 C22.1591538,89.9999178 22.528317,89.8469265 22.8004839,89.5746774 L25.7037097,86.6714516 C25.9759588,86.3992847 26.12895,86.0301215 26.1290323,85.6451613 C26.1290323,67.158871 1.87693548,63.9130645 1.6316129,63.8825806 Z M3.25306452,67.1240323 C8.57032258,68.2620968 22.7641935,72.4746774 23.2141935,85.0325806 L12.6391935,74.4575806 L10.5866129,76.5101613 L21.1616129,87.0851613 C8.60370968,86.6337097 4.39112903,72.4354839 3.25306452,67.1240323 Z" id="Shape"></path>
                        <path d="M58.4898387,37.3166129 C58.7620056,37.588862 59.1311688,37.7418533 59.516129,37.7419355 C78.0024194,37.7419355 81.2482258,13.4898387 81.2787097,13.2445161 C81.3340888,12.8001836 81.1813084,12.3551603 80.8646869,12.0385389 C80.5480655,11.7219174 80.1030423,11.569137 79.6587097,11.6245161 C79.4133871,11.655 55.1612903,14.9008065 55.1612903,33.3870968 C55.1613725,33.772057 55.3143638,34.1412202 55.5866129,34.4133871 L58.4898387,37.3166129 Z M78.0372581,14.8659677 C76.8991935,20.1832258 72.6866129,34.3756452 60.1287097,34.8270968 L70.7037097,24.2520968 L68.651129,22.1995161 L58.076129,32.7745161 C58.526129,20.2166129 72.7258065,16.0040323 78.0372581,14.8659677 Z" id="Shape"></path>
                    </g>
                </g>
            </g>
        </g>
    </g>
</svg>