<?xml version="1.0" encoding="UTF-8"?>
<svg width="90px" height="90px" viewBox="0 0 90 90" version="1.1" xmlns="http://www.w3.org/2000/svg" xmlns:xlink="http://www.w3.org/1999/xlink">
    <!-- Generator: Sketch 49.3 (51167) - http://www.bohemiancoding.com/sketch -->
    <title>spa</title>
    <desc>Created with Sketch.</desc>
    <defs></defs>
    <g id="Page-1" stroke="none" stroke-width="1" fill="none" fill-rule="evenodd">
        <g id="spa网站" transform="translate(-1175.000000, -1961.000000)" fill="#C8A4A8" fill-rule="nonzero">
            <g id="services" transform="translate(0.000000, 1640.000000)">
                <g id="2" transform="translate(1073.000000, 321.000000)">
                    <g id="spa" transform="translate(102.000000, 0.000000)">
                        <path d="M89.64,38.2369355 C89.3644161,37.9224006 88.9665721,37.7419953 88.5483871,37.7419355 L1.4516129,37.7419355 C1.03327522,37.7420399 0.635320492,37.9226191 0.35976446,38.2373814 C0.0842084282,38.5521436 -0.0421560723,38.9704842 0.0130645161,39.3851613 L5.80645161,82.8377419 L5.80645161,88.5483871 C5.80645161,89.3500908 6.45636085,90 7.25806452,90 L82.7419355,90 C83.5436392,90 84.1935484,89.3500908 84.1935484,88.5483871 L84.1935484,82.8377419 L89.9869355,39.3851613 C90.0422254,38.9703021 89.9157652,38.5517666 89.64,38.2369355 Z M74.0322581,81.2903226 L74.0322581,69.6774194 L83.0191935,69.6774194 L81.4703226,81.2903226 L74.0322581,81.2903226 Z M8.52967742,81.2903226 L6.98080645,69.6774194 L15.9677419,69.6774194 L15.9677419,81.2903226 L8.52967742,81.2903226 Z M18.8709677,69.6774194 L24.6774194,69.6774194 L24.6774194,81.2903226 L18.8709677,81.2903226 L18.8709677,69.6774194 Z M27.5806452,69.6774194 L39.1935484,69.6774194 L39.1935484,81.2903226 L27.5806452,81.2903226 L27.5806452,69.6774194 Z M42.0967742,69.6774194 L47.9032258,69.6774194 L47.9032258,81.2903226 L42.0967742,81.2903226 L42.0967742,69.6774194 Z M50.8064516,69.6774194 L62.4193548,69.6774194 L62.4193548,81.2903226 L50.8064516,81.2903226 L50.8064516,69.6774194 Z M65.3225806,69.6774194 L71.1290323,69.6774194 L71.1290323,81.2903226 L65.3225806,81.2903226 L65.3225806,69.6774194 Z M6.59467742,66.7741935 L6.20709677,63.8709677 L83.7929032,63.8709677 L83.4053226,66.7741935 L6.59467742,66.7741935 Z M50.8064516,60.9677419 L50.8064516,40.6451613 L62.4193548,40.6451613 L62.4193548,60.9677419 L50.8064516,60.9677419 Z M47.9032258,60.9677419 L42.0967742,60.9677419 L42.0967742,40.6451613 L47.9032258,40.6451613 L47.9032258,60.9677419 Z M39.1935484,60.9677419 L27.5806452,60.9677419 L27.5806452,40.6451613 L39.1935484,40.6451613 L39.1935484,60.9677419 Z M24.6774194,60.9677419 L18.8709677,60.9677419 L18.8709677,40.6451613 L24.6774194,40.6451613 L24.6774194,60.9677419 Z M65.3225806,60.9677419 L65.3225806,40.6451613 L71.1290323,40.6451613 L71.1290323,60.9677419 L65.3225806,60.9677419 Z M15.9677419,40.6451613 L15.9677419,60.9677419 L5.81951613,60.9677419 L3.11080645,40.6451613 L15.9677419,40.6451613 Z M8.70967742,87.0967742 L8.70967742,84.1935484 L81.2903226,84.1935484 L81.2903226,87.0967742 L8.70967742,87.0967742 Z M84.1804839,60.9677419 L74.0322581,60.9677419 L74.0322581,40.6451613 L86.8891935,40.6451613 L84.1804839,60.9677419 Z" id="Shape"></path>
                        <path d="M8.70967742,17.4193548 C13.5198994,17.4193548 17.4193548,13.5198994 17.4193548,8.70967742 C17.4193548,3.8994554 13.5198994,4.01112835e-16 8.70967742,-8.8817842e-16 C3.8994554,-2.33863108e-15 1.08873484e-15,3.8994554 4.4408921e-16,8.70967742 C0.004801034,13.5179094 3.90144546,17.4145538 8.70967742,17.4193548 Z M8.70967742,2.90322581 C11.9164921,2.90322581 14.516129,5.50286274 14.516129,8.70967742 C14.516129,11.9164921 11.9164921,14.516129 8.70967742,14.516129 C5.50286274,14.516129 2.90322581,11.9164921 2.90322581,8.70967742 C2.90322581,5.50286274 5.50286274,2.90322581 8.70967742,2.90322581 Z" id="Shape"></path>
                        <path d="M14.516129,23.2258065 C14.516129,26.4326211 17.115766,29.0322581 20.3225806,29.0322581 C23.5293953,29.0322581 26.1290323,26.4326211 26.1290323,23.2258065 C26.1290323,20.0189918 23.5293953,17.4193548 20.3225806,17.4193548 C17.115766,17.4193548 14.516129,20.0189918 14.516129,23.2258065 Z M20.3225806,20.3225806 C21.925988,20.3225806 23.2258065,21.6223991 23.2258065,23.2258065 C23.2258065,24.8292138 21.925988,26.1290323 20.3225806,26.1290323 C18.7191733,26.1290323 17.4193548,24.8292138 17.4193548,23.2258065 C17.4193548,21.6223991 18.7191733,20.3225806 20.3225806,20.3225806 Z" id="Shape"></path>
                        <path d="M75.483871,33.3870968 C78.6906856,33.3870968 81.2903226,30.7874598 81.2903226,27.5806452 C81.2903226,24.3738305 78.6906856,21.7741935 75.483871,21.7741935 C72.2770563,21.7741935 69.6774194,24.3738305 69.6774194,27.5806452 C69.6774194,30.7874598 72.2770563,33.3870968 75.483871,33.3870968 Z M75.483871,24.6774194 C77.0872783,24.6774194 78.3870968,25.9772378 78.3870968,27.5806452 C78.3870968,29.1840525 77.0872783,30.483871 75.483871,30.483871 C73.8804636,30.483871 72.5806452,29.1840525 72.5806452,27.5806452 C72.5806452,25.9772378 73.8804636,24.6774194 75.483871,24.6774194 Z" id="Shape"></path>
                        <path d="M81.2903226,17.4193548 C86.1005446,17.4193548 90,13.5198994 90,8.70967742 C90,3.8994554 86.1005446,-5.65855606e-16 81.2903226,-8.8817842e-16 C76.4801006,-1.21050123e-15 72.5806452,3.8994554 72.5806452,8.70967742 C72.5854462,13.5179094 76.4820906,17.4145538 81.2903226,17.4193548 Z M81.2903226,2.90322581 C84.4971373,2.90322581 87.0967742,5.50286274 87.0967742,8.70967742 C87.0967742,11.9164921 84.4971373,14.516129 81.2903226,14.516129 C78.0835079,14.516129 75.483871,11.9164921 75.483871,8.70967742 C75.483871,5.50286274 78.0835079,2.90322581 81.2903226,2.90322581 Z" id="Shape"></path>
                        <path d="M39.618871,34.4133871 L41.6714516,32.3608065 L37.5662903,28.2541935 C36.7518267,27.4361684 36.2932618,26.3296654 36.2903226,25.1753226 L36.2903226,24.1795161 C36.2932618,23.0251733 36.7518267,21.9186703 37.5662903,21.1006452 L39.9701613,18.693871 C41.3357617,17.3359518 42.1015035,15.4882404 42.0967742,13.5624194 L42.0967742,12.5666129 C42.1015035,10.6407919 41.3357617,8.79308049 39.9701613,7.43516129 L35.865,3.32854839 L33.8124194,5.38112903 L37.9175806,9.48774194 C38.7320443,10.305767 39.1906092,11.41227 39.1935484,12.5666129 L39.1935484,13.5624194 C39.1906092,14.7167622 38.7320443,15.8232652 37.9175806,16.6412903 L35.5137097,19.0480645 C34.1481093,20.4059837 33.3823675,22.2536951 33.3870968,24.1795161 L33.3870968,25.1753226 C33.3823675,27.1011436 34.1481093,28.948855 35.5137097,30.3067742 L39.618871,34.4133871 Z" id="Shape"></path>
                        <path d="M54.135,34.4133871 L56.1875806,32.3608065 L52.0824194,28.2541935 C51.2679557,27.4361684 50.8093908,26.3296654 50.8064516,25.1753226 L50.8064516,24.1795161 C50.8093908,23.0251733 51.2679557,21.9186703 52.0824194,21.1006452 L54.4862903,18.693871 C55.8518907,17.3359518 56.6176325,15.4882404 56.6129032,13.5624194 L56.6129032,12.5666129 C56.6176325,10.6407919 55.8518907,8.79308049 54.4862903,7.43516129 L50.381129,3.32854839 L48.3285484,5.38112903 L52.4337097,9.48774194 C53.2481733,10.305767 53.7067382,11.41227 53.7096774,12.5666129 L53.7096774,13.5624194 C53.7067382,14.7167622 53.2481733,15.8232652 52.4337097,16.6412903 L50.0298387,19.0480645 C48.6642383,20.4059837 47.8984965,22.2536951 47.9032258,24.1795161 L47.9032258,25.1753226 C47.8984965,27.1011436 48.6642383,28.948855 50.0298387,30.3067742 L54.135,34.4133871 Z" id="Shape"></path>
                    </g>
                </g>
            </g>
        </g>
    </g>
</svg>